<svg xmlns="http://www.w3.org/2000/svg" version="1.1" xmlns:xlink="http://www.w3.org/1999/xlink" width="1000" height="1000"><metadata><rdf:RDF xmlns:rdf="http://www.w3.org/1999/02/22-rdf-syntax-ns#" xmlns:dc="http://purl.org/dc/elements/1.1/"><rdf:Description><dc:creator>RealFaviconGenerator</dc:creator><dc:source>https://realfavicongenerator.net</dc:source></rdf:Description></rdf:RDF></metadata><g clip-path="url(#SvgjsClipPath1142)"><rect width="1000" height="1000" fill="#ffffff"></rect><g transform="matrix(1.3818596376073102,0,0,1.3818596376073102,100,100)"><svg xmlns="http://www.w3.org/2000/svg" id="Lag_2" data-name="Lag 2" viewBox="0 0 578.93 578.93" width="578.93" height="578.93"><defs>
    <style>
      .cls-1 {
        fill: rgba(255, 255, 255, 0);
        stroke: #000;
        stroke-linecap: round;
        stroke-miterlimit: 10;
        stroke-width: 12px;
      }
    </style>
  <clipPath id="SvgjsClipPath1142"><rect width="1000" height="1000" x="0" y="0" rx="500" ry="500"></rect></clipPath></defs><g id="Lag_1-2" data-name="Lag 1">
    <path d="M198,481.78c.51-5.27,2.07-9.24,4.28-13.53l2.05-3.97c.83-1.61-.32-2.94-1.62-3.75l-1.89-2.98c-1.99-3.14-4.4-4.75-5.15-6.39l-1.88-4.13c.9-7.51,2.07-10.04,8.04-14.1,3.76-2.56,9.06-2.38,13.42-.9-.19-1.26-.64-3.61-1.17-4.78-1.07-2.37-3.29-2.46-5.54-2.59l-4.42-.26-8.52-.97-8.05-1.81-6.14-2.02c-4.05-1.33-7.93-3.4-11.41-5.78l-3.42-2.33-3.58-1.45c-.81-.33-2.22-1.65-2.92-2.24l-3.2-4.85c-.95-1.44-2.12-2.48-3.49-3.67l-1.27-2.59c-1.32-1.68-2.09-3.15-3.08-4.99l-3.67-6.86-3.22-10.65-1.42-6.55-1.61-8.5c.86-2.77.33-5.52-.83-8.11.44-3.15.27-6.33-.49-9.52l1.27-17.79.75-9.53.66-2.07c1.11-3.5,1.98-7,4.33-9.84,0-1.69,1.1-2.64,2.76-2.5,3.08-1.99,6.44-2.25,9.84-2.66,5.1-.62,8.7-4.22,10.16-8.63l1.98-5.98,2.43-8.51c.63-2.2.63-4.99.79-7.32l.44-6.24.07-2.81-.04-9-.22-9.5c-.06-2.53-.71-3.01-2.54-4.51-2.98-2.44-6.02-5.88-7.81-9.31-1.29-2.47-2.74-5.04-3.49-7.46l-2.41-7.73c-3.41-10.94-4.24-20.91-3.31-32.31.37-4.57,1.82-8.94,1.21-13.63.83-.71,2.55-.14,2.97.73l3.23,6.86,3.69,8.34,2.16,5.27c1.07,2.61,1.83,4.71,3.31,7.16l-.24-4.59-.71-5.3c-.62-4.56-.01-8.91-.1-13.52l-.11-5.45-.2-10.06c-.03-1.7.45-3.43.71-5.08,2.04-12.95,4.56-14.96,10.87-24.32,2.32-3.45,5.7-5.88,8.97-8.4l4.27-3.3,5.93-3.9c2.35-1.55,4.61-2.5,6.69-4.51l3.25-1.69,2.79-1.48-1.77-2.04-4.02-4.54c-1.28-1.44-2.36-3.36-3.6-4.88l-7.19-8.85c-.92-1.13-2.49-2.29-3.5-3.46l-2.59-2.98c-.36-.41-.13-1.87.31-2.16s1.4,0,2,.37l3.07,1.94,12.11,2.92c3.33.8,7.07,1.44,10.09,2.86l5.24,2.46c3.92,1.84,7.28,4.56,10.89,7.31,3.97-1.57,8.51-2.6,12.09-4.47,3.97-2.07,7.05-2.43,11.34-2.92l24.47-2.8,4.96.02,7.55.39,6.72.69c5.29.54,10.63,1.2,15.81,2.8l2.66.57,7.24,3.63c4.13,2.07,4.06,3.12,9.98-.72l9.41-6.11,6.38-3.72c3.89-2.27,6.83-5.42,11.15-7.27l5.28-3.32c1.16.49,1.46,2.63.73,3.77l-4.47,7.06c-1.46,2.31-2.93,4.22-4.74,6.35l-4.58,5.37-11.57,12.38c2.37,3.48,5.61,5.78,7.12,9.35l4.42,10.48,3.55,12.66c2.13,7.58,3.45,15.5,3.64,23.58l.55,22.51-.21,13.43-.88,6.91-1.18,6.87c-.8,4.68-.68,9.78,2.86,13.54l2.78,2.35,10.42.59c1.95.11,5.13.62,6.76,1.47,3.33,1.73,6.12,2.84,9.65,4l10.1,3.3c1.27.42,3.48,2.18,4.32,3.21,1.87,2.3,3.55,5.71,4.96,8.37l3.68,6.93,3.03,7.42,3.84,11.28,1.29,4.12,2.42,10.58,1.52,8.06,6.21-6.19c1.32-1.31,5.54-.98,7.48-.35,2.87.92,5.48,2.98,7.43,5.57,2.48,3.28,2.86,9.28,1.31,13.13l-1.92,4.76-4.28,12.7c-1.21,3.59-.53,6.79.32,10.48l3.77,10.4c1.66,4.57,2.86,9.21,5.04,13.6.37.74.4,1.07.55,1.98.91,5.79,1.89,7.95-2.22,14.08-3.36.07-2.03,3.34-9.76,3.5-2.92.06-7.09.58-8.43,3.54l-2.09,4.63c-.93,2.05-1.4,6.41-1.9,8.61-.11.46,1.11,1.6.87,1.98l-1.09,1.69c-.96,1.49-1.51,3.1-1.67,4.86-1.21,1.27-2.25,2.83-2.97,4.49l-4.52,5.03-2.84,2.39c-.94.79-1.45,1.43-2.3,2.57l-5.82,2.35c-2.09-.15-3.77.45-5.47,1.59l-10.31.14-6.14.55-5.15.07-7.62,1.89-9.31,1.9c-1.63.33-3.81,2.25-5.08,3.39-1.85,1.64-1.3,4.64-1.56,6.69-.31,2.44-.61,4.62-.43,7.08l.8,11.02-.09,6.02c-.06,4.27.16,8.82-1.24,12.81l-3.88,11.15c-.3.85-2.81,2.23-2.03,4.82-.06-.19-1.06-.24-1.19-.1l-2.84,3.03c.35,2.33-1.09,2.87-2.95,3.73-2.1.97-3.78,3.85-4.92,5.91l-2.49-.35c-.56-.08-1.39,1.23-1.92,1.62-1.07.8-4.06.79-5.39.85-.21,0-.56,1.22-.35,1.21-4.78.2-7.84,1.11-12.81,2.92l-4.35.96-4.34,1.47-12.81,1.41c-2.03.22-4.17-1.34-6.14.19-.01.23,0,.89-.21.81l-1.46-.54-4.79,1.79c-2.3.86-8.05-.84-8.92-.51-3.17,1.23-5.97.6-9.02-.25l-10.65-.37-3.87-.93c-1.37-.33-3.15-2.56-5.22-2.03-.5.13-2.03.37-2.35,0l-1.28-1.49-.98-.47c-.25-.12-.19-.4-.27-1.3l-1.71-.1c-.86-1.08-2.21-2.01-3.53-2.92-1.45-1-2.28-1.92-4.12-1.75-.19.02-1.11.1-1.12-.08l-.08-1.16c-1.09-2.26-3.66-3.17-6.12-3.29l-2.89-1.45c-1.72-.86-3.64-.8-5.96-.15l1.1,1.08c-4.69,3.4-8.27.09-12.44.64l-3.51-4.3c-1.86-2.28-2.32-6.62-2.01-9.76ZM360.74,78.4l3.36-5.96-6.68,3.26c.02,1.42,2.1,3.14,3.33,2.71ZM211.18,81.01c-2.13-.79-3.92-1.25-5.77-1.69l-8.45-2.02c2.64,3.66,5.95,7.21,9.23,10.14l4.99-6.42ZM348.55,88.05c.53.46,1.25,1.06,1.68,1.02.35-.03,1.27-.57,1.55-.88l6.55-7.13c-.62-1.22-1.93-2.51-3.24-3.18l-5.99,3.7-4.77,2.79,4.22,3.68ZM214.42,91.97c1.23-1.47,2.41-3.19,3.39-3.91l3.91-2.84-6.52-3.3-5.26,4.18c-.66.52-1.6,2.06-2.25,3l3.02,2.96,3.72-.09ZM277.04,449.74l1.69,6.42c.77,2.91.61,5.96,1.74,8.77.91,2.24,5.04,4.48,7.29,4.08l8.88-1.6c5.06-4.9.2-11.62,1.97-18.59,2.78-1.72,5.79-1.82,9.04-2.02,1.32-.46,3.63-1.52,4.6-2.36,3.65-3.13,4.67-7.81,2.56-12.31-.99-2.1-4.49-2.72-6.89-2.13-1.83.45-3.39-.32-4.81-.92-4.13-.33-7.6-2.1-7.9-6.7l-.47-7.19c.36-6.14-.9-11.58-1.25-17.58l-.41-7.12-2.02-20.74c-.72-7.43-1.75-14.62-1.74-22.1,0-7.04-.91-13.73-1.41-20.69l-.92-12.78-.82-6.05-.69-5.97-1.04-7.38-1.86-12.13-1.74-12.1c-1.5-10.44-2.07-20.35-1.34-30.93.67-9.78,1.3-19.27,3.96-28.71l4.33-11.51c1.34-3.56,2.64-6.7,4.6-9.99,3.11-5.19,6.23-10.14,10.29-14.71,5.02-5.64,10.03-10.9,14.4-17.09,1.35-1.91,2.45-5.01,3.11-7.24,2.05-7.02,1.41-16.48-2.89-22.22-1.49-5.29-3.14-10.48-1.86-15.86,2.04-8.57,3.16-10.29,8.21-16.53,1.11-1.37,2.25-2.28,2.78-4.24-3.64-1.54-6.6-3.34-10.23-4.45-4.12-1.26-8.81-2.32-13.12-2.66l-14.96-1.19c-5.97-.48-11.72.39-17.52,1.24l-9.67,1.42-6.75.47c-1.7.12-3.99.82-5.44,1.43l-7.4,3.13-5.32,2.35,1.85,4.15c5.16,11.56,3.21,27.95-2.18,39.3l-3.73,7.86c-2.77,5.83-1.99,9,1.17,13.54l2.46,3.53,6.71,7.86,4.66,5.79c2.03,2.52,3.81,5.44,5.03,8.41l4.83,11.75c2.36,5.73,2.5,11.93,3.11,18.19l2.15,22.03.58,13-.87,22.74-1.05,16.93-.35,15.32.1,16.5.28,6.09.57,23.66,1.24,10.69.96,8.19.97,6.22.64,4.81,1.22,9.34,2.27,14.24,1.88,11.23.19,4.02v10.9c0,1.5-2.22,3.93-3.56,4.44l-4.77,1.79c-3.95,1.49-11.51-1.02-13.07,5.8-.37,1.62-.93,4.42-.17,5.79,1.58,2.86,4.74,2.61,7.39,3.02,5.42.83,10.93.71,15.67-2.3l4.82,1.67ZM347.38,92.68l1.48-1.77-4.6-3.41-2.17-1.61c-3.5,1.92-6.46,3.73-9.69,6.39,1.59,1.63,3.08,2.53,4.89,3.75l4.36,2.95,5.74-6.29ZM219.11,96.51l11.57-5.57c-1.13-1.5-3.46-3.63-5.41-3.84-4.11.9-6.53,3.72-9.35,6.39-.74.7-1.53,1.83-1.23,2.59.27.7,1.26,2.1,1.95,1.92.61-.15,1.8-1.17,2.47-1.49ZM221.64,106.58l4.51-1.15c4.38-.6,7.97-1.05,12.35-1.98l-4.17-9.7c-1.91.39-4.31.47-5.86,1.19l-10.53,4.92,2.11,3.79,1.58,2.94ZM340.16,100.45l-6.7-4.29-4.38-2.39-5.58,5.29,12.64,5.3,4.03-3.9ZM331.76,114.51l3.55-8.15-8.32-3.63-5.28-1.79c-2.44,2.91-4.21,8.99-3.7,9.12l2.16.55c3.85.98,7.62,2.3,11.6,3.9ZM232.94,120.41c1.99.63,3.53,1.16,5.7,1.43.66-5.21.8-10.23.45-15.07-.57-.54-2-.61-2.74-.44-5.16,1.17-9.66.47-15.64,2.78l-.41,8.55c3.33,1.44,7.2,1.04,12.63,2.76ZM240.19,271.33l1.39,2.85c3.2,4.82,5.79,10.26,7.99,15.43.34.79,1.43,1.94,2.16,2.81l.8-7.87c.41-4.05.65-7.78.35-11.82l-.9-11.95-1.03-7.65c-.67-1.22-.87-2.52-.1-3.96-.84-7.53-1.67-14.76-3.1-22.12-1.52-7.85-2.68-15.57-5.36-23.07l-3.6-10.04c-.8-2.23-2.5-4.59-3.83-6.58l-5.42-8.14c-2.9-4.36-6.43-7.35-10.62-10.43-3.88-2.85-9.32-7.81-10.94-11.78-2.61-6.4-.99-12.65,1.17-18.72l3.31-9.33c1.48-4.16,1.98-8.57,2.05-13.02.03-1.78-.93-3.5-2.07-4.39-1.46-1.14-3.11-.83-4.94-.68-3.73.3-7.16.76-10.17,3-2.8,2.09-5.38,4.12-7.96,6.5-1.31,1.2-1.79,2.63-3.07,4.08l-3.62,4.1-3.61,6.05c-2.08,3.48-3.12,7.35-3.75,11.39-.46,2.94-.91,5.69-.92,8.67v5.5s.48,11.46.48,11.46c.35,8.16.17,15.97.88,24.04l.91,10.35,2.61,3.47,5.4,4.61c4.45,3.81,10.36,5.05,16.02,6.1l3.99.74c4.55.84,8.46,1.65,12.6,3.59.86.4,1.91.78,2.47,1.39l5.6,6.03c1.76,1.89,3.11,4.28,4.23,6.75,5.13,11.3.06,22.67,10.63,32.62ZM332.31,123.54l-1.15-7.03-8.77-3.23c-1.73-.64-3.71-.7-5.65-.51-.11,2.45-.39,4.98.09,7.02l1.64,6.98,8.45-2.25,5.38-.98ZM294.92,294.94c3.01-2.43,2.86-4.89,3.43-7.67l1.34-6.52c.91-1.69,1.32-3.61,1.56-5.6.99-8.31,4.07-15.72,6.77-23.46,1.34-3.83,2.09-7.48,4.2-11.06l1.11-3.34c.87-2.61,2.88-4.7,4.38-7.04s2.95-4.18,5.09-5.9l7.21-5.78c4.91-3.24,9.93-5.64,15.42-7.52,4.48-1.53,7.7-4.52,10.11-8.51,3.29-5.45,5.03-14.57,4.78-21.41l-.42-11.46-.61-10.5-.47-6.73c-.37-5.38-.38-11.32-2.69-16.49l-6.14-13.78c-1.6-3.59-5.2-8.45-8.3-7.31-4.54,1.67-7.67,9.68-4.67,15.23l3.18,5.88c4,7.39,2.92,17.64-2.66,24.09l-4.89,5.66-11.45,14.11-4.04,6.41c-1.44,2.29-2.46,4.13-3.5,6.66l-2.17,5.3-4.25,9.69c-1.99,4.52-3.09,9.21-4.74,13.87-1.7,4.83-3.37,9.39-4.54,14.37l-2.16,9.17c-.82,6.19-2.37,12.11-2.27,18.31l.16,10.17.02,6.81.07,9.05c.01,1.96.16,3.83,1.13,5.31ZM234.64,134.32c1.54-3.94,2.3-6.11,3.44-9.93-3.38-1.19-6.04-1.89-9.13-2.71s-6.07-1.76-9.31-1.54l-2.78,8.59,7.09,2.03c3.64,1.04,6.31,3.27,10.69,3.56ZM338.9,140.66c-.67-4.48-3.28-8.28-6.06-11.65l-.34-2.96c-2.99-.07-5.44.73-8.32,1.6l-4.31,1.29c.77,1.72,1.46,3.27,1.69,4.68l1.2,7.28c4.95,1.01,9.75-1.72,16.15-.25ZM229.58,144.01c2.18-1.94,3.18-4.68,3.73-7.3l-4.91-2.01c-2.12-.87-4.13-2.04-6.41-2.54l-5.8-1.28-3.24,8.75-1.51,5.16,8.12-.73,10.02-.05ZM334.7,157.09c3.49-3.9,5.58-8.54,5.43-13.86l-2.52-.31c-3.4-.43-6.58-.26-9.98.07l-4.9.47-1.04,7.81c-.07.5-.92,1.75-.56,2.05.29.25,1.19.76,1.75.89l11.82,2.89ZM230.73,157.64c-1.63-2.45-2.18-4.04-2-6.47l.38-5.03c-6.21-.14-12.43-.27-18.37,1.04-3.4,5.51,1.7,13.51,7.64,16.7l8.84-4.56,3.52-1.68ZM327.1,167.7c2.36-2.88,4.65-5.54,6.37-8.82l-5.84-1.27-7.82-2.3c-1.89,5.28-6.64,10.5-11.07,15.39l11.39,5.52,6.98-8.52ZM236.26,171.54l3.31-3.18-5.98-6.76c-.33-.37-.85-1.43-1.33-1.44s-1.62.22-2.11.42l-3.84,1.59c-2.43,1.01-4.8,1.52-6.44,3.8l12.53,9.07,3.87-3.5ZM162.88,180.1l-4.95-10.27c-.99,4.17-1.08,7.79-.62,12.15,2.11.41,4.33-.16,5.56-1.87ZM239.82,187.33l9.53-5.37c-2.15-4.61-4.82-7.74-8.34-11.51l-4.54,3.59-3.3,2.78,3.47,6.34c.82,1.5,2.05,2.97,3.18,4.19ZM312.25,189.41l1.97-3.56,4.92-7.83-7.62-3.82-3.9-2.07c-4.46,4.72-8.5,9.31-11.63,14.97l-2.09,2.86,6.48,2.81c2.96,1.29,6.36,1.5,9.71,2.17l2.15-5.51ZM161.09,193.88l5.61-2.31c-.28-2.29-1.08-4.73-2.1-6.79l-.82-1.64c-.14-.28-1.16.14-1.49.26l-4.67,1.62c-.07,2.12.23,4.83.78,7.18l.46,1.97c.1.43,1.77-.09,2.23-.28ZM245.41,200.12l10.17-4.34-4.02-9.98c-.21-.52-1.01-1.82-1.37-2.04l-4.84,2.99-4.58,2.63,2.73,6.31,1.92,4.43ZM303.5,210.68l3.8-9.43c.54-1.33,1.28-2.51,1.49-4.14l-7.52-1.82c-3.17-.77-5.03-2.9-8.47-3.13l-3.99,9.48c-1.08,2.57-2.51,5.22-3.28,8l-1.02,3.7,3.67.52,12.61,4.25,2.7-7.43ZM169.78,199.43l-1.81-5.34c-1.21-.29-3.17.42-4.34.97l-4.13,1.92c-.36,1.92.54,4.84,1.08,7.02l2.15,8.67c2.8-3.65,7.69-11.4,7.06-13.24ZM249.37,216.55l9.4-1.42c-.11-5.87-.85-11.57-2.4-17.26l-5.71,2.33-5.36,1.82,4.07,14.52ZM171.42,228.64l.06-5.04-.23-10.46-.33-6.39c-.05-.92-.07-1.59-.67-2.25l-3.18,5.82c-.9,1.64-3.22,4.08-2.85,6.31.49,2.97,2.44,6.27,4.3,8.51l2.89,3.49ZM178.19,233.11l2.24-20.45-4.64-5.18-2.12-2.44c-.1.32-.43,1.98-.41,2.64.28,2.51.36,5.51.02,8.15-.44,3.44.03,6.84.1,10.31s1.03,6.23,4.8,6.97ZM320.37,246.6c1.61-2.19,3.68-3.91,5.5-5.64l5.71-5.41,5.5-3.95c6.46-5.22,13.91-8.61,22.78-8.45-3.56-3.47-4.4-8.38-6.34-9.26-2.56-1.17-4.96.25-7.16.86-5.4,1.48-9.51,4.37-13.39,8.28l-4.76,4.79-3.66,4.21-5.28,9.85c-2.78,5.18-5.42,10.05-7.11,15.89l8.21-11.17ZM179.58,234.61c3.06,2,5.5,2.92,8.99,2.98l-.1-8.27c-.04-3.61.23-6.89.58-10.66l-6.12-4.07-.57,3.98c-.79,1.72-1.34,3.57-1.47,5.5l-.35,5.54c-.08,1.22-1.02,3.47-.97,5.01ZM294.93,235.51c.63-1.24,1.15-3.11,1.61-4.52l2.31-7.18,1.41-3.54-10.45-3.94c-1.97-.74-4.19-1.11-6.4-.28l-1.57,12.03c-.22,1.69-.6,3.77-.15,5.37,2.63,1.19,5.2,1.03,7.88,1.37l5.35.68ZM260.42,230.36l-1.4-13.29-9.12,1.56,2.24,12.78,8.28-1.05ZM200.24,232.46l.63-9.37c.05-.72-1.36-1.48-1.96-1.65l-7.69-2.11c-1.3,5.26-1.53,10.8-1.15,16.32l.17,2.5c.04.53,1.49.58,2.02.73l7.04,1.89.94-8.3ZM215.11,231.76l1.72-4.71c-1.9-1.84-4.32-3.39-6.94-3.72l-6.84-.86c-1.21,4.3-1.03,7.99-1.23,12.2l-.31,6.49,8.57,4.98,5.04-14.38ZM355.74,235.56c1.77-.59,4.35-.34,6.38-.84v-8.01c-10.76-1.1-19.4,3.36-27.31,10.37l2.6,4.74c.29.53,2.01.56,2.56.31,5.3-2.37,10.33-4.75,15.77-6.57ZM389.24,232.64l-7.21-3.49-5.41-2.58-12.55.05c-.62,2.65-.5,5.02.33,7.44,5.76-1.71,11.22-2.77,16.7-1.43l7.23,2.72c.75.32,1.66-2.35.91-2.72ZM215.72,255.37l2.41-3.2c3.73-4.2,7.1-8.18,10.16-13.07-2.23-4.58-5.02-8.81-9.58-11.37l-4.47,12.6c-.58,1.64-1.08,3.53-1.92,4.88-1.25,2.01-.32,2.62.45,4.18l2.96,5.97ZM254.36,250.62l6.93-1.1c.02-5.38-.13-10.83-.6-16.33-.82-.38-2.29-.71-2.99-.62l-5.29.69.95,10.84.99,6.52ZM406.92,249.52c1.69-.96,2.35-3.18,1.46-5.05l-2.43-5.13c-1.22-2.58-4.39-2.76-6.66-3.48l-7.89-2.51-.9,3.07,4.41,2.93,5.45,4.66c1.05.9,2.2,2.59,3.41,3.4l3.17,2.11ZM291.02,256.13l.87-3.66,1-5.47,1.32-9.56c-4.06-.89-8.73-1.29-12.66-1.31l-.56,5.25-.2,5.92c-.1,2.9-.35,5.42.23,8.42l10,.42ZM316.46,261.3l2.34,1.53,4.79-6.62c4.11-4.72,8.06-8.43,13.37-11.93l-3.93-6.29-3.16,3.36-4.09,3.46c-1.88,1.59-3.2,3.43-4.63,5.45l-6.67,9.44c.51.51,1.42,1.24,1.98,1.61ZM328.04,492.79c1.81-2.08,4.63-3.08,7.39-3.96,2.23-.72,4.04-1.39,6.44-1.61l-2.23,2.22c-1.15-.15-1.92-.21-2.41-.02s.03,2.03.63,2.43c1.95-.98,3.99-2.61,5.79-4.27l-1.69-1.28,4.65-3.15c4.68-3.17,8.18-12.48,8.22-17.48.1-11.9-.18-23.31.82-35.06.18-2.12,1.08-5.06,2.6-6.2l4.91-3.68c1.95-1.46,5.1-1.64,7.54-2.21l4.1-.96,4.02-.99h4.74c2.33,0,4.19-.5,6.39-.88l9.71-1.67c2.42-.41,4.62-.4,6.77-1.38l5.91-2.7c6.64-3.03,10.45-8.36,12.48-15.29l1.76-6,.52-5.42-1.49-19.58-1.02-20.02c-.22-4.24-1.23-8.3-1.8-12.48-.49-3.6.28-7.36.24-10.95l-.14-12.33c-.1-8.58-3.02-16.25-6.34-24.03l-3.33-7.82-3.03-7.39-2.05-4.86c-1.73-4.1-4.37-7.13-7.22-10.39-2.44-2.78-4.46-5.43-7.56-7.51-1.8-1.21-3.63-2.76-5.74-3.22l-11.53-2.48c-4.8-.53-9.55.84-14.22,1.61-3.64.6-6.51,2.01-9.42,4.24l-2.78,2.12c-2.81,2.15-4.65,4.26-6.55,7.11-4.34,6.5-8.14,13.24-8.08,21.78,3.31-3.8,5.77-7.65,8.12-11.86,1.35-2.43,6.38-6.96,8.98-7.96,1.98-.77,3.58-2.62,5.39-3.57l6.26-3.25c2-1.04,5.34-1.36,7.63-1.46,2.56-.11,5.41.74,7.42,1.97l5.64,3.45c5.72,3.49,9.34,9.64,11.46,15.92l4.75,14.07c.99,2.94.65,6.58.99,9.67l-2.63,1.23c.14,6.02.65,11.88-.83,17.69l-3.65,14.38-1.89,6.18-5.65,14.64-4.35,7.59c-.81,1.42-1.18,2.16-2.47,3l-4.58,2.99c-11.48,2.81-15.35,2.18-24.45-4.57-2.92-2.16-9.38-9.79-10.75-12.75-2.71-5.82-4.87-11.71-6.43-17.94-1.99-7.94.79-16.28-.74-19.94-2.22-5.29-4.93-10.28-5.74-16.08-.9-6.5.08-13.22,1.87-19.37,1.62-5.57,3.98-10.1,7.44-14.66l3.88-5.11c-4.75,2.82-11.13,10.9-13.96,16.08l-3,5.49c-2.99,4.06-5.15,8.1-7.47,12.54l-4.59,8.78-4.45,10.66-4.82,13.76c-1.33,3.8-3.42,7.18-4.2,11.22l-1.35,7.06-1.49,11.15-.77,11.31.13,12.65.39,8.3.5,8.02.99,8.96.56,6.07.47,5.65.12,7.18c.05,3.22.13,6.03,2.19,8.94l6.91.51c2.72,2.25,9.22.33,10.77,3.45s1.54,5.76.85,8.75c-.8,3.43.61,4.61-4.18,10.11-2.58,2.96-7.83,1.86-12.52,3.63-.88.33-.69,2.79-.62,3.76l.54,7.17c.29,3.82-1.47,7.23-4.61,9.21.32,1.05,1.18,2.57,1.96,3.03l8.82,1.27,8,1.14,4.62.6,5.65.65c2.97.34,6.75.22,9.3-1.4l2.11-1.34,1.4-1.22c.33-.29,1.44.35,1.78.64,1.84,1.58,2.2,5.05.47,6.69-.71.62-3.13.21-4.08.33-2.11.63-4.28,1.03-6.68-.58-2.73,2.76-3.74,9.43-2.73,11.57l.33-.27ZM220.34,265.86l3.6-2.31,6.22-4.31c1.45-1.01,1.52-2,1.37-3.81-.37-4.46-.58-8.38-1.97-13.05-1.59.79-2.63,1.84-3.39,3.33s-1.87,2.35-2.9,3.62l-6.79,8.39,2.83,5.75,1.04,2.38ZM147.34,375.53l-1.05-6.37c-.54-3.28-.62-6.55-.35-9.7l1.72-19.66,1.15-5.58c.74-3.6,2.15-6.93,3.61-10.28l1.65-3.8,5.94-9.62c4.38-7.1,9.45-13.64,16.43-18.43l7.21-4.95c2.47-1.7,5.79-2.63,8.65-3.66l7.16-2.57c3.71-1.33,7.63-2.19,11.47-2.81,4.93-.8,6.99-5.04,5.98-9.63-.82-3.74-1.98-7.09-3.25-10.71-1.43-4.09-2.78-8.25-6.93-10.3-3.26-1.6-6.53-2.86-10.14-3.13-9.65-.72-17.83,3.91-19.04,13.4l-2.2,17.19c-.56,4.36-2.2,10.91-4.18,14.34l-3.51,6.05c-1.45,2.5-4.39,3.31-6.72,4.61-7.54,4.2-12.59,1.64-16,9.65-1.28,3.02-1.98,5.78-2.19,9.04l-.92,14.04-.4,10.48c-.17,4.35.79,8.41,1.25,12.65.72,6.72,1.56,13.08,3.6,19.6.58,1.87.62,3.65,1.78,5.32l-.72-5.2ZM411.81,254.86l-1.76-5.86c-.55.49-1.19,1.09-1.29,1.51-.15.58.96,3.85,3.06,4.35ZM256,268.85l4.77.14.69-17.19-7.09.8.46,8.33,1.17,7.93ZM371.28,275.37l5.81.76c1.53.2,4.46,1.33,5.9,2.12l7.12,3.92,5.22,3.6c-1.72-10.4-4.28-16.91-11.56-24.27-2.59-2.63-6.8-2.99-10.03-4l-5.78-1.79c-2.51-.78-14.17,4.74-17.55,8.25-3.65,3.79-7.37,7.51-9.8,12.15l-3.09,5.92c-1.43,2.73-2.66,5.03-3.56,8.55l8.68-6.89c8.66-6.88,17.02-9.83,28.62-8.32ZM291.08,274.25l-.46-16.13-9.66-.51,1.57,16.08,8.55.56ZM228.82,276.52l3.94-2.84,4.1-3.97c-2.02-2.89-3.38-5.49-4.73-9.07l-10.65,7.38,7.34,8.51ZM308.81,281.07l8.77-16.52-4.12-3.06c-2.63,2.99-4.12,6.99-5.05,10.94l-1.76,7.44,2.16,1.2ZM259.76,282.99l.73-12.14-4.75-.06,1.41,14.5,1.91.08c.49.02.66-1.81.7-2.38ZM243.03,279.06l-4.45-7.49-8.39,6.7c2.84,2.42,4.97,3.67,7.71,5.06l5.12-4.28ZM290.74,291.09l.15-15.07-7.69-.14c.23,5.73.93,11.07,2.49,16.45l5.06-1.24ZM376.26,280.9l-6.15-1.06c-1.33,1.46-.65,5.43,1.71,6.16,2.6.81,5.73-2.71,4.44-5.1ZM158.28,323.32l2.25-4.31c1.9-3.65,3.71-7.4,6.32-10.62,4.46-5.5,10.35-9.05,16.32-12.64,1.91-1.15,4.04-2.61,6.04-3.26l6.88-2.26,8.77-1.23c4.01-1.21,7.88-.59,11.84.67,3.61,1.16,7.68,1.43,11.18,2.83l8.95,3.58c3.56,1.42,6.14,4.46,9.26,6.55l6.23,4.18c-1.3-3.02-2.71-5.46-4.75-7.63l-6.55-6.99c-2.11-2.25-4.23-5.45-7.17-6.66l-10.08-4.12c-1.95-.8-4.92-.94-7.23-1.12-1.64-.13-3.61.71-5.24.95-5.07.73-10.3.97-14.98,3.09-2.72,1.23-5.16,1.83-8.05,2.63-4.26,1.18-7.66,4.66-11.3,7.03-6.84,4.47-11.23,10.82-15.55,17.57l-4.29,6.72-4.2,8.88c-2.34,4.95-3.48,10.07-3.97,15.55l-.71,7.84-.37,4.69c-.35,4.49-.82,9.29.04,13.62l1.37,6.95,1.53,6.43c.66-1.71.32-3.25.25-5.17l-.32-8.37c-.23-5.96-.19-11.72.35-17.56.69-7.47,4.03-21.8,7.16-27.8ZM243.97,289.4l3.14-2.29-2.94-6.52-4.78,4.3,4.58,4.51ZM308.3,282.56l-2.76-.52.22,6.38,2.55-5.86ZM259.35,287.58c-.39-.21-1.49-.43-1.59-.04-.62,2.59-.82,12.88,1.27,14.47l.32-14.43ZM354.67,300.02c2.36,3.74,4.42,5.26,8.01,7.1s6.88,2.47,10.7.87c2.38-1,4.47-1.99,5.4-4.82,1.51-4.63,2.44-9.39,2.56-14.49-1.56-.67-4.24-.97-5.29-.21l-3.4,5.38c-1.49,2.36-7.35,3.66-11.21,1.73-3.18-1.98-5.16-3.88-6.77-7.17l-4.17,1.09c.68,4.37,2.05,7.14,4.18,10.52ZM431.31,356.89c-.85,5.8,1.13,11.05,4.98,13.59,3.06,2.02,7.43,2.06,10.47.42,1.91-1.03,4.58-2.33,5.24-4.23,1.9-5.5-.74-10.35-2.41-15.3l-2.15-6.39-2.66-6.89c-2.75-7.15-3.09-14.2-.52-21.32l3.09-8.6c1.58-4.39,3-9.33.31-13.55-1.71-2.69-4.51-5.11-7.68-5.64-2.25-.37-4.76,1.78-5.94,3.62-4.27,6.62-5.56,14.39-4.23,21.75,2.09-5.11,4.13-9.94,8.31-12.91,3.56.31,5.14,4.93,3.89,8.24-1.41,4.49-3.87,8.22-6.04,12.37l-2.95,5.63c-2.53,4.83-2.73,9.98-.47,14.93,1.65,3.63,3.22,7.03,6.34,9.77,2.84,2.49,5.24,5.44,6.29,9.35-.33,1.66-2.12,3.91-3.49,4.81-6.65-1.64-6.77-6.48-10.4-9.66ZM345.59,295.85l1.43,10.19c.87,3.79,2.94,6.71,6.55,8.15,2.15,3.13,5.72,4.4,9.48,4.61,9.22,2,17.29-6.3,20.11-15.12,2-4.24,2.35-9.02,1.74-13.59-.36-.37-1.38-1.24-1.56-.89-1.21,2.5-.83,10.37-4.11,16.59-2.64,3.71-8.6,5.61-12.56,4.7-4.94-1.13-9.35-4.1-12.14-8.18l-3.53-5.15c-.92-1.35-1.46-4.76-1.99-6.35-.17-.51-1.59-.73-1.87-.34s-.69,1.41-.83,2.06l-.72,3.33ZM249.51,296.23l-1.52-6.7c-1.29.49-2.26,1.19-2.33,1.92,1.13,1.78,2.35,3.52,3.85,4.78ZM395.06,291.54l-2.38-.24.64,7.49,1.74-7.25ZM388.44,298.27c-.16-1.46-.61-2.67-1.26-3.89l-2.16,8.93-2.71,6.22c-3.21,7.36-12.21,13.4-20.7,11.01-3.39-.18-6.55-1.69-8.54-4.38-6-2.81-8.09-8.7-8.59-15-.19-2.44-.78-5.92-.13-7.78.14-.4-.02-1.31-.17-1.55s-.96-.05-1.38.08c-1.75,7.49-2.38,14.92-1.69,22.52,1.51,3.85,2.45,8.06,5.52,10.67l5.99,5.08c3.65,3.09,14.62,4.9,19.18,2.59,2.72-1.38,4.5-4.66,6.75-6.56,4.3-3.63,7.01-8.13,9.01-13.28.97-2.52,1.96-4.91,1.64-7.77l-.76-6.88ZM225.47,300.55l2.41-4.65-3.33-1.15-8.69-1.88c-3.73-.81-8.11-.35-11.88-.17l-8.5.42.65,4.47c5.23-.55,9.27-.68,14.01-.32l8.64.67c2.48.19,3.89,1.25,6.69,2.6ZM288.37,310.58c.81.06,2.35-.26,2.35-.81l-.03-2.1-.15-6v-8.66s-4.73,1.27-4.73,1.27l.81,5.12,1.03,6.58.72,4.6ZM340.77,334.17c.17.47.53,1.2.83,1.29l1.26.36-.87,1.06,5.58,7.36,5.35,6.11c2.83,3.23,7.26,5.85,11.53,6.17,5.65.42,10.15-1.81,14.35-5.14,3.84-3.05,6-7.44,7.75-11.93l4.62-11.86,2.04-6.26,2.61-10.38c1.29-5.12,1.16-10.53.51-15.99l-3.17,10.72c-1.37,7.14-3.28,13.6-7.48,19.7-1.97,2.86-4.78,5.01-7.64,7.27-1.59,1.26-3.56,3.72-5.63,4.12-3.13.61-6.62.74-9.73.2l-6.47-1.11c-4.4-.76-11.09-6.28-13.88-10.18-3.03-4.22-4.07-8.81-5.08-13.53l-.12,8.87c-.04,2.94.95,5.69,1.9,8.32l1.75,4.85ZM173.67,312.48l8.19-8.05c3.31-3.25,7.92-4.51,12.13-6.24-.09-.95-.33-2.2-.73-2.7s-2.04.38-2.65.68l-5.93,2.93-5.35,2.69c-4.19,2.11-10.7,8.86-10.28,10.06.24.69,1.32,1.75,1.97,1.97s1.93-.64,2.65-1.35ZM247.44,326.27l7.61-10.78c-2.19-2.39-3.92-5.06-6.29-6.95l-8.68-6.92c-2.3-1.83-5.42-2.74-8.15-3.91-.6-.26-2-1.23-2.5-.83l-2.29,4.54,4.69,3.55c1.45,1.1,2.92,2.44,3.98,3.93l5.64,7.91,6,9.46ZM273.89,502.12l-16.32.16,10.55,1.44c3.89.53,7.63.45,11.42.49,4.04.04,7.74.02,11.73-.57l6.85-1,10.96-1.61,13.12-3.62c-2.48-.79-4.8.33-7.12.5l-6.01.45-6.65,1.2c-2.02.36-3.46.69-5.45-.23l3.26-1.09-7.1-.86-10.55-.21-5.13-.45c-2.87-.25-6.96,1.42-8.26,1.25l-4.62-.6-1.87-9.35-7.39.28c-1.16.04-2.82,1.05-3.84,1.69l-6.3.22-4.78.24-.16-5.94c-.02-.9,1.27-2.65,2.18-2.71l3.07,3.2c.93.97,3.53.02,4.7-.56l6.81-3.41c3.63-1.82,7.54-2.71,11.23-4.35,3.79-1.68,7.19-4.95,10.43-7.17-1.54-4.11-2.33-7.73-3.14-11.77l-.93-4.65c-.64.58-.89.9-1.08.81l-.99-.46-4.81.85c-4.76.84-8.91,1.1-13.63.29-1.68-.29-3.19-.42-4.58-1.21-3.92-2.23-5.42-5.91-4.33-10.32.8-3.24,2.11-6.71,5.35-8.49,2.97-1.63,6.57-.8,9.53-1.7,4.21-1.28,7.84-2.37,7.25-5.66,1.13-2.21,1.22-4.5.08-6.68.42-6.48-1.13-12.54-2.04-18.92l-2.41-16.94-1.5-8.77-2.29-11.75c-1.18-6.05-2.9-11.59-5-17.45-1.08-3-3.06-5.57-4.6-8.37l-4.09-7.43-6.72-9.91c-1.65-2.44-4.48-4.27-6.83-6.18l-4.96-4.02c-6.02-4.88-13.42-7.09-21.31-6.22-7.68-.44-14.88,1.59-21.17,5.92l-.57,1.45c-.79,2.03,5.95-1.13,7.59-1.32,4.92-.59,9.54-.45,14.47-.07,2.62.2,5.22,1.88,7.19,3.58l4.82,4.17c6.23,6.76,9.21,15.27,11.35,24.05l5.71,23.41c.22.91-.96,2.53-1.65,2.23l-3.61-1.55c-.29,4.83-.66,8.62-1.99,12.95l-1.92,6.27c-.89,6.05-2.06,11.27-5.53,16.19l-4.97,7.02c-3.81,4.5-9.17,7.01-15.02,7.5-1.87.16-3.37-.17-5.34-.33l-4.48-.36-7.82-2.32c-6.11-1.81-12.75-9.01-15.21-15.34l-1.32-3.42-3.44-9.49-4.01-18.64c-1.28,3.94-1.23,7.25-1.5,10.89-.34,4.62.56,9.13,1.29,13.8.66,4.19,1.19,8.7,4.21,11.92l2.9,2,6.83,5.83,4.71,2.24,10.55,4.01,4.14.69,8.84,1.52c1.65.28,3.49-.81,5.02-.86l11.46-.39,2.6,2.55c.87.85.06,3.68-.02,4.92l-.73,11.01-1.1,18.54.19,6.93.57,6.12c.4,4.24,2.16,8.46,3.9,12.39,2.17,4.88,6.21,8.11,10.48,11.18,3.38,2.42,6.91,5.66,11.18,6.19l6.24.78,5.27.72,9.43.96,7.79-.03,13.66-.24,9.46-.57c-2.13,2.45-3.65,2.14-5.97,2.17l-9.85.1-6.37.28ZM292.24,322.65l-1.25-9.94c-.66-.7-2.72.3-2.63,1.29l.99,10.54c.79.16,3-1,2.89-1.89ZM191.44,322.6c3.59.07,7.56-.98,10.68.02,11.93,3.85,14.19,7.26,21.01,17.18,0-1.48-.4-2.85-.86-4.14l-2.53-7.09c-2.26-6.35-7.17-12.82-13.95-13.61-1.8-1.47-4.02-1.49-6.35-.9-2.33.19-5.46-.56-7.74.12-3.02.89-5.6,2.74-8.43,4.06-1.46.68-2.65,1.67-3.9,2.66-3.77,2.98-7.6,5.76-10.17,9.86-3.3,5.29-6.31,10.48-7.32,16.81,2.71-2.83,4.67-5.57,6.68-8.44l4.55-6.49c2.16-3.08,5.38-4.94,8.41-7.02s5.69-3.11,9.91-3.02ZM158.84,337.92l5.29-11.7c1.82-4.02,3.15-7.44,6.82-10.67l-3.79-1.67-4.53,8.4c-1.76,3.25-3.51,6.44-4.42,10.07l-1.47,5.85-1.22,5.19c2.09.63,1.47-1.41,3.31-5.47ZM253.94,338.27c.81,1.61,1.51,3.21,3.14,4.75-1.49-8.23-2.21-15.47-1.71-24.18l-3.04,3.62c-1.38,1.64-2.87,4.01-3.33,6.02l4.95,9.78ZM216.77,347.53l4.94,2.4c1.93,2.26,3.91,4.25,6.55,5.14-1-4.04-3.47-6.25-5.38-9.18-3.43-5.29-6.73-10.32-10.85-15.21l-12.35-5.77-6.62.46c-4.81.33-8.64,1.93-12.57,4.67-4.7,3.28-7.78,7.87-10.87,12.65l-7.47,11.58c2.38-.91,3.71-1.9,5.34-3.21,3.14-2.53,6.82-3.52,10.51-5.04l7.25-3,3.39-.16c11.37-.55,17.8-.34,28.12,4.68ZM291.91,336.19l.97-10.42c-.59.08-1.73.46-2.15.78-.91.7-.53,6.79,1.18,9.64ZM200.2,353.79c3.95-1.33,5.57-5.38,4.15-9.01l-6.81.02-1.52,4.52c-.61,1.82,1.88,5.25,4.18,4.47ZM155.98,346.56c-1.82-1.67-2.08,5.63-1.73,10.57l1.73-10.57ZM210.35,355.42c-.99-.67-3.16-1.21-4-.8-1.05,4.17-6.59,9.05-9.18,9.06l-6.01.02c-4.76.02-8.72-4.37-9.54-8.98l-5.6.33c-1.19,5.94,1.45,10.78,5.8,14.44,3.12,2.62,9.34,3.78,14.12,3.56,8.54-.39,13.18-8.27,16.9-15.94l-2.49-1.68ZM218.33,360.07l-3.69-2.32-2.62,4.85c-3.13,5.79-7.08,10.94-13.62,12.19-4.44.85-9.27.2-13.34-.98-4.4-1.28-7.06-3.85-8.99-7.68-1.67-3.33-2.51-6.44-1.72-10.71-2.74.34-2.83,2.14-2.92,4.26-.29,6.59.03,13.33,3.7,18.93l3.19,2.9c6.34,5.75,14.4,5.79,22.43,2.49,2.62-1.08,4.87-2.28,6.73-4.5,4.68-5.57,8.79-12.17,10.84-19.41ZM221.14,361.13c-.47-.3-1.25-.76-1.32-.54l-.3,1.04-2.05,5.9c-2.85,5.66-6.05,10.91-10.6,15.35-1.44,1.4-3.3,2.2-5.11,2.91-6.85,2.7-15.06,4.18-21.03.23-2.87-1.89-5.91-3.8-7.72-6.78-1.5-2.47-2.61-6.17-2.73-9.03l-.59-13.77c-.68.47-1.39,1.5-1.41,2.05l-.41,10.19c-.19,4.81.4,8.05,2.47,12.08,1.18,2.3,2.2,4.29,4.83,5.45,9.84,4.37,15.68,6.59,26.36,4.56,2.63-.5,4.39-1.66,6.34-3.41,4.64-4.15,8.86-8.83,10.64-15.01,1.78-3.47,2.7-7.19,2.64-11.25ZM172.64,396.59c1.41,2.37,3.11,4.52,5.21,6.29l4.97,4.17c1.15.97,2.73.94,4.3,1.33,5.85,1.44,11.93,3.13,17.84.48,2.29-1.02,5.13-2.64,7.01-4.39,5.03-4.67,10.21-20.02,11.83-28.49-2.57,1.44-3.04,4.03-4.28,6.21-2.83,4.99-14,15.52-18.03,15.52l-7.93.02c-1.25,0-2.24-.29-3.46-.5l-7.79-1.37-5.8-2.06-7.73-3.72,3.84,6.49ZM215.91,478.67l-2.74,6.71c-.33.82-1.12,1.94-1.81,2.09-3.33.73-3.9-6.81-2.01-10.78,3.14-6.62,3.63-14.81-.79-20.98l-2.29-3.2c-1.7-2.38-2.17-6.25.33-8.04,2.95-2.11,3.68,4.1,6.99,7.94.61-4.35.34-8.55-1.8-12-1.61-2.6-6.26-2.73-8.54-1.3-2.43,1.52-4.5,3.4-5.17,6.16-.26,1.08.94,3.37,1.72,4.2l3.86,4.13c3.49,3.74,4.44,8.62,1.45,13.24-2.29,3.53-3.84,7.43-4.91,11.52-.66,2.54-.49,4.23.64,6.52.88,1.79,1.61,4.45,3.16,5.79,2.07,1.79,4.81,1.25,7.12-.09,2.43-1.41,5.15-4.82,5-7.81l-.2-4.1ZM279.79,480.9c1.63-.96,2.86-3.17,3.99-4.55.81-.98,1.6-2.54,1.44-3.29-1.53-.45-2.54-.81-3.63-1.41-1.97-1.09-2.93.75-4.32,1.72l-4.98,3.51c-.4.28-1.11,1.67-.66,1.87l1.76.77c1.76.77,4.01,2.78,6.4,1.38ZM285.47,477.88l9.91-3.07-1.02-2.83-6.66,1.31-2.23,4.6ZM292.9,484.1l9.68-.84,14.91-1.99-5.15-.42-10.58-2.15-2.68-.03c-3.35-.03-6.25.51-9.37,1.93l-4.81,2.19-5.27,2.27c3.37.39,5.24.17,8.04-.22l5.23-.74ZM260.63,485.1c4.76,1.24,9.02.59,12.96-1.28-5.24-3.07-9.86-2.67-12.96,1.28ZM271.59,487.3l.68,5.07,8.48.76,14.69.44,9.72.05,13.43-.25-.51-9.09-6.54.37-6.36.76c-2.26.27-3.77.28-6.08.56l-7.72.93-4.63.39c-4.25.96-8.41,1.08-12.72-.38l-2.44.4ZM327.92,493.59l-2.38,1.38c-.74,1.03-1.13,1.26-2.56,2.19.84.14,2.93.12,4.09-.33l9.12-3.54-.28-2.85-4.95,1.66-2.5,1.23-.54.25Z"></path>
    <circle class="cls-1" cx="289.46" cy="289.46" r="283.46"></circle>
  </g></svg></g></g></svg>